<svg id="visual" viewBox="0 0 900 600" width="900" height="600" xmlns="http://www.w3.org/2000/svg" xmlns:xlink="http://www.w3.org/1999/xlink" version="1.1"><rect x="0" y="0" width="900" height="600" fill="#120e2b"></rect><defs><linearGradient id="grad1_0" x1="33.3%" y1="0%" x2="100%" y2="100%"><stop offset="20%" stop-color="#cc2c67" stop-opacity="1"></stop><stop offset="80%" stop-color="#cc2c67" stop-opacity="1"></stop></linearGradient></defs><defs><linearGradient id="grad1_1" x1="33.3%" y1="0%" x2="100%" y2="100%"><stop offset="20%" stop-color="#cc2c67" stop-opacity="1"></stop><stop offset="80%" stop-color="#992567" stop-opacity="1"></stop></linearGradient></defs><defs><linearGradient id="grad1_2" x1="33.3%" y1="0%" x2="100%" y2="100%"><stop offset="20%" stop-color="#66225d" stop-opacity="1"></stop><stop offset="80%" stop-color="#992567" stop-opacity="1"></stop></linearGradient></defs><defs><linearGradient id="grad1_3" x1="33.3%" y1="0%" x2="100%" y2="100%"><stop offset="20%" stop-color="#66225d" stop-opacity="1"></stop><stop offset="80%" stop-color="#371b47" stop-opacity="1"></stop></linearGradient></defs><defs><linearGradient id="grad1_4" x1="33.3%" y1="0%" x2="100%" y2="100%"><stop offset="20%" stop-color="#120e2b" stop-opacity="1"></stop><stop offset="80%" stop-color="#371b47" stop-opacity="1"></stop></linearGradient></defs><defs><linearGradient id="grad2_0" x1="0%" y1="0%" x2="66.7%" y2="100%"><stop offset="20%" stop-color="#cc2c67" stop-opacity="1"></stop><stop offset="80%" stop-color="#cc2c67" stop-opacity="1"></stop></linearGradient></defs><defs><linearGradient id="grad2_1" x1="0%" y1="0%" x2="66.7%" y2="100%"><stop offset="20%" stop-color="#992567" stop-opacity="1"></stop><stop offset="80%" stop-color="#cc2c67" stop-opacity="1"></stop></linearGradient></defs><defs><linearGradient id="grad2_2" x1="0%" y1="0%" x2="66.7%" y2="100%"><stop offset="20%" stop-color="#992567" stop-opacity="1"></stop><stop offset="80%" stop-color="#66225d" stop-opacity="1"></stop></linearGradient></defs><defs><linearGradient id="grad2_3" x1="0%" y1="0%" x2="66.7%" y2="100%"><stop offset="20%" stop-color="#371b47" stop-opacity="1"></stop><stop offset="80%" stop-color="#66225d" stop-opacity="1"></stop></linearGradient></defs><defs><linearGradient id="grad2_4" x1="0%" y1="0%" x2="66.7%" y2="100%"><stop offset="20%" stop-color="#371b47" stop-opacity="1"></stop><stop offset="80%" stop-color="#120e2b" stop-opacity="1"></stop></linearGradient></defs><g transform="translate(900, 0)"><path d="M0 486.7C-62.7 479.3 -125.4 471.8 -186.3 449.7C-247.1 427.6 -306 390.9 -340.8 340.8C-375.6 290.8 -386.2 227.4 -406.5 168.4C-426.8 109.4 -456.8 54.7 -486.7 0L0 0Z" fill="#23163a"></path><path d="M0 389.4C-50.2 383.4 -100.4 377.4 -149 359.8C-197.7 342.1 -244.8 312.7 -272.7 272.7C-300.5 232.6 -309 181.9 -325.2 134.7C-341.4 87.5 -365.4 43.7 -389.4 0L0 0Z" fill="#4e1f53"></path><path d="M0 292C-37.6 287.6 -75.3 283.1 -111.8 269.8C-148.3 256.6 -183.6 234.5 -204.5 204.5C-225.4 174.5 -231.7 136.4 -243.9 101C-256.1 65.6 -274.1 32.8 -292 0L0 0Z" fill="#7f2463"></path><path d="M0 194.7C-25.1 191.7 -50.2 188.7 -74.5 179.9C-98.8 171 -122.4 156.3 -136.3 136.3C-150.2 116.3 -154.5 91 -162.6 67.4C-170.7 43.7 -182.7 21.9 -194.7 0L0 0Z" fill="#b32869"></path><path d="M0 97.3C-12.5 95.9 -25.1 94.4 -37.3 89.9C-49.4 85.5 -61.2 78.2 -68.2 68.2C-75.1 58.2 -77.2 45.5 -81.3 33.7C-85.4 21.9 -91.4 10.9 -97.3 0L0 0Z" fill="#cc2c67"></path></g><g transform="translate(0, 600)"><path d="M0 -486.7C71 -486.9 142.1 -487.1 186.3 -449.7C230.4 -412.3 247.8 -337.3 290.6 -290.6C333.5 -243.9 401.9 -225.5 438.8 -181.8C475.8 -138.1 481.3 -69 486.7 0L0 0Z" fill="#23163a"></path><path d="M0 -389.4C56.8 -389.5 113.7 -389.7 149 -359.8C184.4 -329.8 198.2 -269.9 232.5 -232.5C266.8 -195.1 321.5 -180.4 351.1 -145.4C380.6 -110.4 385 -55.2 389.4 0L0 0Z" fill="#4e1f53"></path><path d="M0 -292C42.6 -292.2 85.3 -292.3 111.8 -269.8C138.3 -247.4 148.7 -202.4 174.4 -174.4C200.1 -146.4 241.1 -135.3 263.3 -109.1C285.5 -82.8 288.8 -41.4 292 0L0 0Z" fill="#7f2463"></path><path d="M0 -194.7C28.4 -194.8 56.8 -194.8 74.5 -179.9C92.2 -164.9 99.1 -134.9 116.2 -116.2C133.4 -97.6 160.8 -90.2 175.5 -72.7C190.3 -55.2 192.5 -27.6 194.7 0L0 0Z" fill="#b32869"></path><path d="M0 -97.3C14.2 -97.4 28.4 -97.4 37.3 -89.9C46.1 -82.5 49.6 -67.5 58.1 -58.1C66.7 -48.8 80.4 -45.1 87.8 -36.4C95.2 -27.6 96.3 -13.8 97.3 0L0 0Z" fill="#cc2c67"></path></g></svg>