<svg id="visual" viewBox="0 0 900 600" width="900" height="600" xmlns="http://www.w3.org/2000/svg" xmlns:xlink="http://www.w3.org/1999/xlink" version="1.1"><path d="M0 235L21.5 219C43 203 86 171 128.8 172C171.7 173 214.3 207 257.2 227C300 247 343 253 385.8 249C428.7 245 471.3 231 514.2 201C557 171 600 125 642.8 108C685.7 91 728.3 103 771.2 107C814 111 857 107 878.5 105L900 103L900 0L878.5 0C857 0 814 0 771.2 0C728.3 0 685.7 0 642.8 0C600 0 557 0 514.2 0C471.3 0 428.7 0 385.8 0C343 0 300 0 257.2 0C214.3 0 171.7 0 128.8 0C86 0 43 0 21.5 0L0 0Z" fill="#120e2b"></path><path d="M0 349L21.5 333C43 317 86 285 128.8 281C171.7 277 214.3 301 257.2 310C300 319 343 313 385.8 309C428.7 305 471.3 303 514.2 290C557 277 600 253 642.8 234C685.7 215 728.3 201 771.2 197C814 193 857 199 878.5 202L900 205L900 101L878.5 103C857 105 814 109 771.2 105C728.3 101 685.7 89 642.8 106C600 123 557 169 514.2 199C471.3 229 428.7 243 385.8 247C343 251 300 245 257.2 225C214.3 205 171.7 171 128.8 170C86 169 43 201 21.5 217L0 233Z" fill="#2f1942"></path><path d="M0 385L21.5 376C43 367 86 349 128.8 352C171.7 355 214.3 379 257.2 383C300 387 343 371 385.8 367C428.7 363 471.3 371 514.2 357C557 343 600 307 642.8 288C685.7 269 728.3 267 771.2 269C814 271 857 277 878.5 280L900 283L900 203L878.5 200C857 197 814 191 771.2 195C728.3 199 685.7 213 642.8 232C600 251 557 275 514.2 288C471.3 301 428.7 303 385.8 307C343 311 300 317 257.2 308C214.3 299 171.7 275 128.8 279C86 283 43 315 21.5 331L0 347Z" fill="#522056"></path><path d="M0 427L21.5 429C43 431 86 435 128.8 438C171.7 441 214.3 443 257.2 447C300 451 343 457 385.8 459C428.7 461 471.3 459 514.2 445C557 431 600 405 642.8 389C685.7 373 728.3 367 771.2 361C814 355 857 349 878.5 346L900 343L900 281L878.5 278C857 275 814 269 771.2 267C728.3 265 685.7 267 642.8 286C600 305 557 341 514.2 355C471.3 369 428.7 361 385.8 365C343 369 300 385 257.2 381C214.3 377 171.7 353 128.8 350C86 347 43 365 21.5 374L0 383Z" fill="#7a2463"></path><path d="M0 535L21.5 538C43 541 86 547 128.8 551C171.7 555 214.3 557 257.2 559C300 561 343 563 385.8 557C428.7 551 471.3 537 514.2 538C557 539 600 555 642.8 556C685.7 557 728.3 543 771.2 535C814 527 857 525 878.5 524L900 523L900 341L878.5 344C857 347 814 353 771.2 359C728.3 365 685.7 371 642.8 387C600 403 557 429 514.2 443C471.3 457 428.7 459 385.8 457C343 455 300 449 257.2 445C214.3 441 171.7 439 128.8 436C86 433 43 429 21.5 427L0 425Z" fill="#a42668"></path><path d="M0 601L21.5 601C43 601 86 601 128.8 601C171.7 601 214.3 601 257.2 601C300 601 343 601 385.8 601C428.7 601 471.3 601 514.2 601C557 601 600 601 642.8 601C685.7 601 728.3 601 771.2 601C814 601 857 601 878.5 601L900 601L900 521L878.5 522C857 523 814 525 771.2 533C728.3 541 685.7 555 642.8 554C600 553 557 537 514.2 536C471.3 535 428.7 549 385.8 555C343 561 300 559 257.2 557C214.3 555 171.7 553 128.8 549C86 545 43 539 21.5 536L0 533Z" fill="#cc2c67"></path></svg>