<svg id="visual" viewBox="0 0 900 600" width="900" height="600" xmlns="http://www.w3.org/2000/svg" xmlns:xlink="http://www.w3.org/1999/xlink" version="1.1"><rect x="0" y="0" width="900" height="600" fill="#120e2b"></rect><defs><linearGradient id="grad1_0" x1="33.3%" y1="100%" x2="100%" y2="0%"><stop offset="20%" stop-color="#f97169" stop-opacity="1"></stop><stop offset="80%" stop-color="#f97169" stop-opacity="1"></stop></linearGradient></defs><defs><linearGradient id="grad1_1" x1="33.3%" y1="100%" x2="100%" y2="0%"><stop offset="20%" stop-color="#f97169" stop-opacity="1"></stop><stop offset="80%" stop-color="#c24d6d" stop-opacity="1"></stop></linearGradient></defs><defs><linearGradient id="grad1_2" x1="33.3%" y1="100%" x2="100%" y2="0%"><stop offset="20%" stop-color="#843664" stop-opacity="1"></stop><stop offset="80%" stop-color="#c24d6d" stop-opacity="1"></stop></linearGradient></defs><defs><linearGradient id="grad1_3" x1="33.3%" y1="100%" x2="100%" y2="0%"><stop offset="20%" stop-color="#843664" stop-opacity="1"></stop><stop offset="80%" stop-color="#46234d" stop-opacity="1"></stop></linearGradient></defs><defs><linearGradient id="grad1_4" x1="33.3%" y1="100%" x2="100%" y2="0%"><stop offset="20%" stop-color="#120e2b" stop-opacity="1"></stop><stop offset="80%" stop-color="#46234d" stop-opacity="1"></stop></linearGradient></defs><defs><linearGradient id="grad2_0" x1="0%" y1="100%" x2="66.7%" y2="0%"><stop offset="20%" stop-color="#f97169" stop-opacity="1"></stop><stop offset="80%" stop-color="#f97169" stop-opacity="1"></stop></linearGradient></defs><defs><linearGradient id="grad2_1" x1="0%" y1="100%" x2="66.7%" y2="0%"><stop offset="20%" stop-color="#c24d6d" stop-opacity="1"></stop><stop offset="80%" stop-color="#f97169" stop-opacity="1"></stop></linearGradient></defs><defs><linearGradient id="grad2_2" x1="0%" y1="100%" x2="66.7%" y2="0%"><stop offset="20%" stop-color="#c24d6d" stop-opacity="1"></stop><stop offset="80%" stop-color="#843664" stop-opacity="1"></stop></linearGradient></defs><defs><linearGradient id="grad2_3" x1="0%" y1="100%" x2="66.7%" y2="0%"><stop offset="20%" stop-color="#46234d" stop-opacity="1"></stop><stop offset="80%" stop-color="#843664" stop-opacity="1"></stop></linearGradient></defs><defs><linearGradient id="grad2_4" x1="0%" y1="100%" x2="66.7%" y2="0%"><stop offset="20%" stop-color="#46234d" stop-opacity="1"></stop><stop offset="80%" stop-color="#120e2b" stop-opacity="1"></stop></linearGradient></defs><g transform="translate(900, 600)"><path d="M-486.7 0C-465.1 -37.8 -443.4 -75.6 -435.6 -116.7C-427.8 -157.9 -433.9 -202.4 -421.5 -243.4C-409.2 -284.4 -378.3 -321.8 -336.6 -336.6C-294.8 -351.3 -242.2 -343.3 -204.5 -354.2C-166.8 -365.1 -144.2 -394.9 -112.6 -420.2C-81 -445.4 -40.5 -466.1 0 -486.7L0 0Z" fill="#2a193d"></path><path d="M-389.4 0C-372.1 -30.2 -354.7 -60.5 -348.5 -93.4C-342.3 -126.3 -347.1 -161.9 -337.2 -194.7C-327.3 -227.5 -302.7 -257.5 -269.3 -269.3C-235.9 -281.1 -193.7 -274.6 -163.6 -283.4C-133.5 -292.1 -115.3 -315.9 -90.1 -336.1C-64.8 -356.3 -32.4 -372.9 0 -389.4L0 0Z" fill="#642c5a"></path><path d="M-292 0C-279.1 -22.7 -266.1 -45.3 -261.4 -70C-256.7 -94.7 -260.3 -121.4 -252.9 -146C-245.5 -170.6 -227 -193.1 -201.9 -201.9C-176.9 -210.8 -145.3 -206 -122.7 -212.5C-100.1 -219.1 -86.5 -237 -67.6 -252.1C-48.6 -267.3 -24.3 -279.7 0 -292L0 0Z" fill="#a4406a"></path><path d="M-194.7 0C-186 -15.1 -177.4 -30.2 -174.3 -46.7C-171.1 -63.2 -173.6 -81 -168.6 -97.3C-163.7 -113.7 -151.3 -128.7 -134.6 -134.6C-117.9 -140.5 -96.9 -137.3 -81.8 -141.7C-66.7 -146 -57.7 -158 -45 -168.1C-32.4 -178.2 -16.2 -186.4 0 -194.7L0 0Z" fill="#df5e6c"></path><path d="M-97.3 0C-93 -7.6 -88.7 -15.1 -87.1 -23.3C-85.6 -31.6 -86.8 -40.5 -84.3 -48.7C-81.8 -56.9 -75.7 -64.4 -67.3 -67.3C-59 -70.3 -48.4 -68.7 -40.9 -70.8C-33.4 -73 -28.8 -79 -22.5 -84C-16.2 -89.1 -8.1 -93.2 0 -97.3L0 0Z" fill="#f97169"></path></g><g transform="translate(0, 0)"><path d="M486.7 0C445.4 35.2 404 70.5 380.6 102C357.1 133.5 351.6 161.2 346.4 200C341.3 238.8 336.5 288.7 309.7 309.7C282.9 330.8 234 323 202.5 350.7C171 378.4 156.8 441.6 126 470.2C95.1 498.7 47.6 492.7 0 486.7L0 0Z" fill="#2a193d"></path><path d="M389.4 0C356.3 28.2 323.2 56.4 304.5 81.6C285.7 106.8 281.2 129 277.1 160C273 191 269.2 230.9 247.8 247.8C226.3 264.6 187.2 258.4 162 280.6C136.8 302.8 125.5 353.3 100.8 376.1C76.1 399 38 394.2 0 389.4L0 0Z" fill="#642c5a"></path><path d="M292 0C267.2 21.1 242.4 42.3 228.3 61.2C214.3 80.1 210.9 96.7 207.8 120C204.8 143.3 201.9 173.2 185.8 185.8C169.7 198.5 140.4 193.8 121.5 210.4C102.6 227.1 94.1 265 75.6 282.1C57.1 299.2 28.5 295.6 0 292L0 0Z" fill="#a4406a"></path><path d="M194.7 0C178.2 14.1 161.6 28.2 152.2 40.8C142.8 53.4 140.6 64.5 138.6 80C136.5 95.5 134.6 115.5 123.9 123.9C113.2 132.3 93.6 129.2 81 140.3C68.4 151.4 62.7 176.6 50.4 188.1C38 199.5 19 197.1 0 194.7L0 0Z" fill="#df5e6c"></path><path d="M97.3 0C89.1 7 80.8 14.1 76.1 20.4C71.4 26.7 70.3 32.2 69.3 40C68.3 47.8 67.3 57.7 61.9 61.9C56.6 66.2 46.8 64.6 40.5 70.1C34.2 75.7 31.4 88.3 25.2 94C19 99.7 9.5 98.5 0 97.3L0 0Z" fill="#f97169"></path></g></svg>