<svg id="visual" viewBox="0 0 1920 1080" width="1920" height="1080" xmlns="http://www.w3.org/2000/svg" xmlns:xlink="http://www.w3.org/1999/xlink" version="1.1"><rect x="0" y="0" width="1920" height="1080" fill="#120e2b"></rect><path d="M0 417L45.7 417C91.3 417 182.7 417 274.2 424.3C365.7 431.7 457.3 446.3 548.8 442.7C640.3 439 731.7 417 823 414.5C914.3 412 1005.7 429 1097 431.8C1188.3 434.7 1279.7 423.3 1371.2 416.3C1462.7 409.3 1554.3 406.7 1645.8 415.5C1737.3 424.3 1828.7 444.7 1874.3 454.8L1920 465L1920 1081L1874.3 1081C1828.7 1081 1737.3 1081 1645.8 1081C1554.3 1081 1462.7 1081 1371.2 1081C1279.7 1081 1188.3 1081 1097 1081C1005.7 1081 914.3 1081 823 1081C731.7 1081 640.3 1081 548.8 1081C457.3 1081 365.7 1081 274.2 1081C182.7 1081 91.3 1081 45.7 1081L0 1081Z" fill="#120e2b"></path><path d="M0 525L45.7 532.3C91.3 539.7 182.7 554.3 274.2 553.2C365.7 552 457.3 535 548.8 529C640.3 523 731.7 528 823 533.7C914.3 539.3 1005.7 545.7 1097 555C1188.3 564.3 1279.7 576.7 1371.2 578.2C1462.7 579.7 1554.3 570.3 1645.8 574C1737.3 577.7 1828.7 594.3 1874.3 602.7L1920 611L1920 1081L1874.3 1081C1828.7 1081 1737.3 1081 1645.8 1081C1554.3 1081 1462.7 1081 1371.2 1081C1279.7 1081 1188.3 1081 1097 1081C1005.7 1081 914.3 1081 823 1081C731.7 1081 640.3 1081 548.8 1081C457.3 1081 365.7 1081 274.2 1081C182.7 1081 91.3 1081 45.7 1081L0 1081Z" fill="#371b48"></path><path d="M0 720L45.7 713.3C91.3 706.7 182.7 693.3 274.2 690.8C365.7 688.3 457.3 696.7 548.8 698.3C640.3 700 731.7 695 823 685.7C914.3 676.3 1005.7 662.7 1097 661.8C1188.3 661 1279.7 673 1371.2 691.5C1462.7 710 1554.3 735 1645.8 743.8C1737.3 752.7 1828.7 745.3 1874.3 741.7L1920 738L1920 1081L1874.3 1081C1828.7 1081 1737.3 1081 1645.8 1081C1554.3 1081 1462.7 1081 1371.2 1081C1279.7 1081 1188.3 1081 1097 1081C1005.7 1081 914.3 1081 823 1081C731.7 1081 640.3 1081 548.8 1081C457.3 1081 365.7 1081 274.2 1081C182.7 1081 91.3 1081 45.7 1081L0 1081Z" fill="#66225d"></path><path d="M0 875L45.7 864.3C91.3 853.7 182.7 832.3 274.2 822.2C365.7 812 457.3 813 548.8 820.2C640.3 827.3 731.7 840.7 823 838.8C914.3 837 1005.7 820 1097 808.2C1188.3 796.3 1279.7 789.7 1371.2 783.2C1462.7 776.7 1554.3 770.3 1645.8 773.8C1737.3 777.3 1828.7 790.7 1874.3 797.3L1920 804L1920 1081L1874.3 1081C1828.7 1081 1737.3 1081 1645.8 1081C1554.3 1081 1462.7 1081 1371.2 1081C1279.7 1081 1188.3 1081 1097 1081C1005.7 1081 914.3 1081 823 1081C731.7 1081 640.3 1081 548.8 1081C457.3 1081 365.7 1081 274.2 1081C182.7 1081 91.3 1081 45.7 1081L0 1081Z" fill="#992568"></path><path d="M0 952L45.7 954.7C91.3 957.3 182.7 962.7 274.2 969.5C365.7 976.3 457.3 984.7 548.8 981C640.3 977.3 731.7 961.7 823 955C914.3 948.3 1005.7 950.7 1097 960.3C1188.3 970 1279.7 987 1371.2 997.3C1462.7 1007.7 1554.3 1011.3 1645.8 1004.5C1737.3 997.7 1828.7 980.3 1874.3 971.7L1920 963L1920 1081L1874.3 1081C1828.7 1081 1737.3 1081 1645.8 1081C1554.3 1081 1462.7 1081 1371.2 1081C1279.7 1081 1188.3 1081 1097 1081C1005.7 1081 914.3 1081 823 1081C731.7 1081 640.3 1081 548.8 1081C457.3 1081 365.7 1081 274.2 1081C182.7 1081 91.3 1081 45.7 1081L0 1081Z" fill="#cc2c67"></path></svg>