<svg id="visual" viewBox="0 0 6000 600" width="6000" height="600" xmlns="http://www.w3.org/2000/svg" xmlns:xlink="http://www.w3.org/1999/xlink" version="1.1"><path d="M0 76L71.5 81.8C143 87.7 286 99.3 428.8 100.2C571.7 101 714.3 91 857.2 90C1000 89 1143 97 1285.8 118.8C1428.7 140.7 1571.3 176.3 1714.2 182.8C1857 189.3 2000 166.7 2142.8 151.8C2285.7 137 2428.3 130 2571.2 134.3C2714 138.7 2857 154.3 3000 167.5C3143 180.7 3286 191.3 3428.8 182.5C3571.7 173.7 3714.3 145.3 3857.2 148.8C4000 152.3 4143 187.7 4285.8 198C4428.7 208.3 4571.3 193.7 4714.2 171.2C4857 148.7 5000 118.3 5142.8 123.2C5285.7 128 5428.3 168 5571.2 181.2C5714 194.3 5857 180.7 5928.5 173.8L6000 167L6000 601L5928.5 601C5857 601 5714 601 5571.2 601C5428.3 601 5285.7 601 5142.8 601C5000 601 4857 601 4714.2 601C4571.3 601 4428.7 601 4285.8 601C4143 601 4000 601 3857.2 601C3714.3 601 3571.7 601 3428.8 601C3286 601 3143 601 3000 601C2857 601 2714 601 2571.2 601C2428.3 601 2285.7 601 2142.8 601C2000 601 1857 601 1714.2 601C1571.3 601 1428.7 601 1285.8 601C1143 601 1000 601 857.2 601C714.3 601 571.7 601 428.8 601C286 601 143 601 71.5 601L0 601Z" fill="#fa7268"></path><path d="M0 333L71.5 338C143 343 286 353 428.8 351.5C571.7 350 714.3 337 857.2 336.3C1000 335.7 1143 347.3 1285.8 342.3C1428.7 337.3 1571.3 315.7 1714.2 316.2C1857 316.7 2000 339.3 2142.8 334.7C2285.7 330 2428.3 298 2571.2 281.3C2714 264.7 2857 263.3 3000 273.2C3143 283 3286 304 3428.8 319.8C3571.7 335.7 3714.3 346.3 3857.2 347.7C4000 349 4143 341 4285.8 331C4428.7 321 4571.3 309 4714.2 296.3C4857 283.7 5000 270.3 5142.8 278.2C5285.7 286 5428.3 315 5571.2 317.7C5714 320.3 5857 296.7 5928.5 284.8L6000 273L6000 601L5928.5 601C5857 601 5714 601 5571.2 601C5428.3 601 5285.7 601 5142.8 601C5000 601 4857 601 4714.2 601C4571.3 601 4428.7 601 4285.8 601C4143 601 4000 601 3857.2 601C3714.3 601 3571.7 601 3428.8 601C3286 601 3143 601 3000 601C2857 601 2714 601 2571.2 601C2428.3 601 2285.7 601 2142.8 601C2000 601 1857 601 1714.2 601C1571.3 601 1428.7 601 1285.8 601C1143 601 1000 601 857.2 601C714.3 601 571.7 601 428.8 601C286 601 143 601 71.5 601L0 601Z" fill="#d34969"></path><path d="M0 485L71.5 488.8C143 492.7 286 500.3 428.8 498C571.7 495.7 714.3 483.3 857.2 465.5C1000 447.7 1143 424.3 1285.8 420.7C1428.7 417 1571.3 433 1714.2 437.2C1857 441.3 2000 433.7 2142.8 425.2C2285.7 416.7 2428.3 407.3 2571.2 398.7C2714 390 2857 382 3000 393C3143 404 3286 434 3428.8 435.5C3571.7 437 3714.3 410 3857.2 396.8C4000 383.7 4143 384.3 4285.8 406.5C4428.7 428.7 4571.3 472.3 4714.2 475.3C4857 478.3 5000 440.7 5142.8 435C5285.7 429.3 5428.3 455.7 5571.2 472.7C5714 489.7 5857 497.3 5928.5 501.2L6000 505L6000 601L5928.5 601C5857 601 5714 601 5571.2 601C5428.3 601 5285.7 601 5142.8 601C5000 601 4857 601 4714.2 601C4571.3 601 4428.7 601 4285.8 601C4143 601 4000 601 3857.2 601C3714.3 601 3571.7 601 3428.8 601C3286 601 3143 601 3000 601C2857 601 2714 601 2571.2 601C2428.3 601 2285.7 601 2142.8 601C2000 601 1857 601 1714.2 601C1571.3 601 1428.7 601 1285.8 601C1143 601 1000 601 857.2 601C714.3 601 571.7 601 428.8 601C286 601 143 601 71.5 601L0 601Z" fill="#a42668"></path></svg>