<svg id="visual" viewBox="0 0 960 540" width="960" height="540" xmlns="http://www.w3.org/2000/svg" xmlns:xlink="http://www.w3.org/1999/xlink" version="1.1"><rect x="0" y="0" width="960" height="540" fill="#120e2b"></rect><defs><linearGradient id="grad1_0" x1="43.8%" y1="0%" x2="100%" y2="100%"><stop offset="14.444444444444446%" stop-color="#f97169" stop-opacity="1"></stop><stop offset="85.55555555555554%" stop-color="#f97169" stop-opacity="1"></stop></linearGradient></defs><defs><linearGradient id="grad1_1" x1="43.8%" y1="0%" x2="100%" y2="100%"><stop offset="14.444444444444446%" stop-color="#f97169" stop-opacity="1"></stop><stop offset="85.55555555555554%" stop-color="#c24d6d" stop-opacity="1"></stop></linearGradient></defs><defs><linearGradient id="grad1_2" x1="43.8%" y1="0%" x2="100%" y2="100%"><stop offset="14.444444444444446%" stop-color="#843664" stop-opacity="1"></stop><stop offset="85.55555555555554%" stop-color="#c24d6d" stop-opacity="1"></stop></linearGradient></defs><defs><linearGradient id="grad1_3" x1="43.8%" y1="0%" x2="100%" y2="100%"><stop offset="14.444444444444446%" stop-color="#843664" stop-opacity="1"></stop><stop offset="85.55555555555554%" stop-color="#46234d" stop-opacity="1"></stop></linearGradient></defs><defs><linearGradient id="grad1_4" x1="43.8%" y1="0%" x2="100%" y2="100%"><stop offset="14.444444444444446%" stop-color="#120e2b" stop-opacity="1"></stop><stop offset="85.55555555555554%" stop-color="#46234d" stop-opacity="1"></stop></linearGradient></defs><defs><linearGradient id="grad2_0" x1="0%" y1="0%" x2="56.3%" y2="100%"><stop offset="14.444444444444446%" stop-color="#f97169" stop-opacity="1"></stop><stop offset="85.55555555555554%" stop-color="#f97169" stop-opacity="1"></stop></linearGradient></defs><defs><linearGradient id="grad2_1" x1="0%" y1="0%" x2="56.3%" y2="100%"><stop offset="14.444444444444446%" stop-color="#c24d6d" stop-opacity="1"></stop><stop offset="85.55555555555554%" stop-color="#f97169" stop-opacity="1"></stop></linearGradient></defs><defs><linearGradient id="grad2_2" x1="0%" y1="0%" x2="56.3%" y2="100%"><stop offset="14.444444444444446%" stop-color="#c24d6d" stop-opacity="1"></stop><stop offset="85.55555555555554%" stop-color="#843664" stop-opacity="1"></stop></linearGradient></defs><defs><linearGradient id="grad2_3" x1="0%" y1="0%" x2="56.3%" y2="100%"><stop offset="14.444444444444446%" stop-color="#46234d" stop-opacity="1"></stop><stop offset="85.55555555555554%" stop-color="#843664" stop-opacity="1"></stop></linearGradient></defs><defs><linearGradient id="grad2_4" x1="0%" y1="0%" x2="56.3%" y2="100%"><stop offset="14.444444444444446%" stop-color="#46234d" stop-opacity="1"></stop><stop offset="85.55555555555554%" stop-color="#120e2b" stop-opacity="1"></stop></linearGradient></defs><g transform="translate(960, 0)"><path d="M0 432C-29.9 419 -59.9 406 -91.5 400.7C-123 395.4 -156.3 397.8 -185.3 384.7C-214.2 371.6 -238.9 343.1 -243.8 305.7C-248.6 268.3 -233.7 222.1 -253.3 202C-273 181.9 -327.2 187.8 -362.2 174.4C-397.1 161.1 -412.8 128.4 -421.2 96.1C-429.6 63.8 -430.8 31.9 -432 0L0 0Z" fill="#2a193d"></path><path d="M0 345.6C-23.9 335.2 -47.9 324.8 -73.2 320.6C-98.4 316.3 -125 318.2 -148.2 307.8C-171.4 297.3 -191.1 274.5 -195 244.6C-198.9 214.7 -186.9 177.7 -202.7 161.6C-218.4 145.5 -261.8 150.2 -289.8 139.5C-317.7 128.8 -330.2 102.7 -336.9 76.9C-343.7 51.1 -344.6 25.5 -345.6 0L0 0Z" fill="#642c5a"></path><path d="M0 259.2C-18 251.4 -35.9 243.6 -54.9 240.4C-73.8 237.2 -93.8 238.7 -111.2 230.8C-128.5 223 -143.4 205.8 -146.3 183.4C-149.2 161 -140.2 133.3 -152 121.2C-163.8 109.1 -196.3 112.7 -217.3 104.7C-238.3 96.6 -247.7 77 -252.7 57.7C-257.7 38.3 -258.5 19.2 -259.2 0L0 0Z" fill="#a4406a"></path><path d="M0 172.8C-12 167.6 -23.9 162.4 -36.6 160.3C-49.2 158.2 -62.5 159.1 -74.1 153.9C-85.7 148.7 -95.6 137.2 -97.5 122.3C-99.5 107.3 -93.5 88.9 -101.3 80.8C-109.2 72.8 -130.9 75.1 -144.9 69.8C-158.9 64.4 -165.1 51.4 -168.5 38.5C-171.8 25.5 -172.3 12.8 -172.8 0L0 0Z" fill="#df5e6c"></path><path d="M0 86.4C-6 83.8 -12 81.2 -18.3 80.1C-24.6 79.1 -31.3 79.6 -37.1 76.9C-42.8 74.3 -47.8 68.6 -48.8 61.1C-49.7 53.7 -46.7 44.4 -50.7 40.4C-54.6 36.4 -65.4 37.6 -72.4 34.9C-79.4 32.2 -82.6 25.7 -84.2 19.2C-85.9 12.8 -86.2 6.4 -86.4 0L0 0Z" fill="#f97169"></path></g><g transform="translate(0, 540)"><path d="M0 -432C21.7 -388.7 43.5 -345.3 79.2 -347.1C115 -348.8 164.7 -395.6 185.3 -384.7C205.9 -373.8 197.3 -305.2 226.3 -283.8C255.3 -262.4 321.9 -288.3 337.8 -269.3C353.6 -250.4 318.7 -186.5 307.2 -148C295.8 -109.4 307.7 -96.3 332.5 -75.9C357.2 -55.5 394.6 -27.7 432 0L0 0Z" fill="#2a193d"></path><path d="M0 -345.6C17.4 -310.9 34.8 -276.3 63.4 -277.7C92 -279.1 131.7 -316.5 148.2 -307.8C164.7 -299 157.9 -244.1 181.1 -227C204.3 -210 257.5 -230.7 270.2 -215.5C282.9 -200.3 255 -149.2 245.8 -118.4C236.6 -87.6 246.2 -77 266 -60.7C285.7 -44.4 315.7 -22.2 345.6 0L0 0Z" fill="#642c5a"></path><path d="M0 -259.2C13 -233.2 26.1 -207.2 47.5 -208.2C69 -209.3 98.8 -237.4 111.2 -230.8C123.5 -224.3 118.4 -183.1 135.8 -170.3C153.2 -157.5 193.1 -173 202.7 -161.6C212.2 -150.2 191.2 -111.9 184.3 -88.8C177.5 -65.7 184.6 -57.8 199.5 -45.5C214.3 -33.3 236.7 -16.6 259.2 0L0 0Z" fill="#a4406a"></path><path d="M0 -172.8C8.7 -155.5 17.4 -138.1 31.7 -138.8C46 -139.5 65.9 -158.2 74.1 -153.9C82.3 -149.5 78.9 -122.1 90.5 -113.5C102.1 -105 128.8 -115.3 135.1 -107.7C141.4 -100.1 127.5 -74.6 122.9 -59.2C118.3 -43.8 123.1 -38.5 133 -30.4C142.9 -22.2 157.8 -11.1 172.8 0L0 0Z" fill="#df5e6c"></path><path d="M0 -86.4C4.3 -77.7 8.7 -69.1 15.8 -69.4C23 -69.8 32.9 -79.1 37.1 -76.9C41.2 -74.8 39.5 -61 45.3 -56.8C51.1 -52.5 64.4 -57.7 67.6 -53.9C70.7 -50.1 63.7 -37.3 61.4 -29.6C59.2 -21.9 61.5 -19.3 66.5 -15.2C71.4 -11.1 78.9 -5.5 86.4 0L0 0Z" fill="#f97169"></path></g></svg>