<?xml version="1.0" encoding="utf-8"?>
<!-- Generator: Adobe Illustrator 24.2.1, SVG Export Plug-In . SVG Version: 6.00 Build 0)  -->
<!DOCTYPE svg PUBLIC "-//W3C//DTD SVG 1.1//EN" "http://www.w3.org/Graphics/SVG/1.1/DTD/svg11.dtd" [
	<!ENTITY ns_extend "http://ns.adobe.com/Extensibility/1.0/">
	<!ENTITY ns_ai "http://ns.adobe.com/AdobeIllustrator/10.0/">
	<!ENTITY ns_graphs "http://ns.adobe.com/Graphs/1.0/">
	<!ENTITY ns_vars "http://ns.adobe.com/Variables/1.0/">
	<!ENTITY ns_imrep "http://ns.adobe.com/ImageReplacement/1.0/">
	<!ENTITY ns_sfw "http://ns.adobe.com/SaveForWeb/1.0/">
	<!ENTITY ns_custom "http://ns.adobe.com/GenericCustomNamespace/1.0/">
	<!ENTITY ns_adobe_xpath "http://ns.adobe.com/XPath/1.0/">
]>
<svg version="1.1" id="Layer_1" xmlns:x="&ns_extend;" xmlns:i="&ns_ai;" xmlns:graph="&ns_graphs;"
	 xmlns="http://www.w3.org/2000/svg" xmlns:xlink="http://www.w3.org/1999/xlink" x="0px" y="0px" width="2048px" height="2048px"
	 viewBox="0 0 2048 2048" style="enable-background:new 0 0 2048 2048;" xml:space="preserve">
<style type="text/css">
	.Drop_x0020_Shadow{fill:none;}
	.Round_x0020_Corners_x0020_2_x0020_pt{fill:#FFFFFF;stroke:#231F20;stroke-miterlimit:10;}
	.Live_x0020_Reflect_x0020_X{fill:none;}
	.Bevel_x0020_Soft{fill:url(#SVGID_1_);}
	.Dusk{fill:#FFFFFF;}
	.Foliage_GS{fill:#FFDD00;}
	.Pompadour_GS{fill-rule:evenodd;clip-rule:evenodd;fill:#44ADE2;}
	.st0{fill:#F5F5FF;}
	.st1{fill:#5E58DD;}
	.st2{fill:#0B2E4E;}
	.st3{fill:#7F72F5;}
	.st4{fill:#FCC1B9;}
	.st5{fill:#F9A17B;}
	.st6{fill:#F4A9A2;}
	.st7{fill:#EFEFF9;}
	.st8{fill:#E0CDFF;}
	.st9{fill:#8071F2;}
	.st10{fill:#F4AFA8;}
	.st11{fill:#FFFFFF;}
	.st12{fill:#E6E6EF;}
	.st13{fill:#EFB226;}
	.st14{fill:#E4E4EF;}
	.st15{fill:#F9C041;}
</style>
<metadata>
	<sfw  xmlns="&ns_sfw;">
		<slices></slices>
		<sliceSourceBounds  bottomLeftOrigin="true" height="1519.1" width="1622.3" x="212.9" y="-1783.5"></sliceSourceBounds>
	</sfw>
</metadata>
<linearGradient id="SVGID_1_" gradientUnits="userSpaceOnUse" x1="0" y1="0" x2="0.7071" y2="0.7071">
	<stop  offset="0" style="stop-color:#DEDFE3"/>
	<stop  offset="0.1783" style="stop-color:#DADBDF"/>
	<stop  offset="0.3611" style="stop-color:#CECFD3"/>
	<stop  offset="0.546" style="stop-color:#B9BCBF"/>
	<stop  offset="0.7324" style="stop-color:#9CA0A2"/>
	<stop  offset="0.9181" style="stop-color:#787D7E"/>
	<stop  offset="1" style="stop-color:#656B6C"/>
</linearGradient>
<g>
	<path class="st0" d="M1454.3,626.8c0,0-454-512-841.2-318.8s-444.5,579.6-358.5,739s196,338.1,554.4,347.8s826.8,91.8,936.8-256
		C1855.8,791,1564.2,689.6,1454.3,626.8z"/>
	<g>
		<ellipse class="st0" cx="1024" cy="1652.6" rx="811.1" ry="131"/>
		<path class="st1" d="M1771.6,883.4c0,0,26.3-3.1,27-16.3c0.6-13.2,10.7-16.9,23.2-21.9c12.5-5-0.6-9.4-12.5-8.1
			c-11.9,1.3-16.3-3.8-20.1,5c-3.8,8.8-4.4,8.1-8.1,13.2s-7.5,6.9-7.5,6.9s0-25.1,4.4-36.4c4.4-11.3,6.9-15,1.9-25.1
			c-5-10-8.1-9.4-8.8-14.4c-0.6-5-0.6-14.4-6.3-15c-5.6-0.6-11.3-1.3-10.7,8.8c0.6,10,1.3,16.9,0,28.8c-1.3,11.9-1.9,10-2.5,20.1
			c-0.6,10-1.9,15,0,20.1s8.8,5,3.1,7.5c-5.6,2.5-8.8,13.8-12.5,1.3c-3.8-12.5,0-25.1-10.7-34.5s-12.5-11.3-18.2-13.2
			c-5.6-1.9-5-11.3-10.7-8.1s-7.5,6.3-5.6,14.4c1.9,8.1-5,10.7,5,18.2c10,7.5,14.4,6.3,15.7,11.3c1.3,5,0.6,9.4,5.6,15.7
			c5,6.3-6.3,7.5-14.4,2.5c-8.1-5-13.8-10.7-18.8-8.1c-5,2.5-15,8.1-3.8,13.2c11.3,5,25.7,6.9,31.3,9.4s9.4-1.3,11.9,6.3
			s-1.9,10.7,11.3,15s17.6,8.1,21.3,5S1771.6,883.4,1771.6,883.4z"/>
		<rect x="756.1" y="1274.9" class="st2" width="36.8" height="269.6"/>
		<path class="st1" d="M878.5,1595.1H652c-17.4,0-31.6-14.1-31.6-31.6l0,0c0-11.7,6.5-22.4,16.8-27.9l123.5-65.4
			c9.9-5.2,21.9-4.8,31.4,1.1l103,63.9c9.3,5.8,14.9,15.9,14.9,26.8v1.4C910,1581,895.9,1595.1,878.5,1595.1z"/>
		<path class="st1" d="M675.6,664.5c0,0-46-142.5-131-91.9c-85,50.6-73.5,494-71.2,556.1c2.3,62,25.3,142.5,128.7,170
			s356.2,23,356.2,23l218.3-6.9c0,0-43.7-188.4-52.9-193s-222.9-110.3-241.3-154C864.1,924.1,675.6,664.5,675.6,664.5z"/>
		<path class="st3" d="M671,1133.2c-6.9,0-211.4,32.2-108,57.4s413.6,73.5,448.1,36.8c34.5-36.8-229.8-98.8-282.6-98.8
			S671,1133.2,671,1133.2z"/>
		<polygon class="st4" points="1024.3,1555.6 1000.6,1629.5 913.1,1585.3 943.7,1504.6 		"/>
		<path class="st2" d="M1000.6,1629.5c0,0,93.4,60.6,90.6,104.2l-8.8,17.4l-182.8-97c-13.5-7.1-17.6-24.5-8.9-37l22.4-32
			L1000.6,1629.5z"/>
		<polygon class="st4" points="1270.8,1475.6 1283,1552.2 1185,1552.2 1175.8,1466.4 		"/>
		<path class="st2" d="M639.6,1025.2c0,0-46,137.9,0,156.3c46,18.4,318.6,9.2,330.9,39.8s-111.8,335.5-111.8,335.5l159.3,15.3
			c0,0,111.8-280.3,121-341.6c9.2-61.3,9.2-174.6-272.7-199.1L639.6,1025.2z"/>
		<path class="st2" d="M1545,1036l131.7,582.1h-38.3l-160.9-583.7C1477.6,1034.5,1543.5,1036,1545,1036z"/>
		<path class="st2" d="M385.3,1036l-131.7,582.1h38.3l160.9-583.7C452.7,1034.5,386.9,1036,385.3,1036z"/>
		<path class="st2" d="M939.9,1025.2c0,0,252.8,13.8,280.3,73.5c27.6,59.7,50.6,376.9,50.6,376.9l-128.7-4.6l-55.1-298.7
			l-367.7-105.7l114.9-41.4H939.9z"/>
		<rect x="218.2" y="996.1" class="st5" width="1611.6" height="42.9"/>
		<g>
			<path class="st3" d="M785.4,618.9c0,0,116.7,20.9,136,95.8c19.3,74.9-6.4,280.5-6.4,280.5H623.7l21.4-134.9l-104.9-27.8
				c0,0,25.7-182,188.4-214.1L785.4,618.9z"/>
			<path class="st2" d="M648.2,861.5l-2.9-0.9c1.3-4.2,33.1-103.7,50.2-114.6l1.6,2.5C680.9,758.8,648.5,860.5,648.2,861.5z"/>
			<path class="st2" d="M894.2,806.7l-2.8-1c8.9-25.7-4.5-77.9-4.6-78.4l2.9-0.8C890.2,728.7,903.4,780.1,894.2,806.7z"/>
			<path class="st6" d="M852.1,894.9c0,0,12.8-51.4,45-54.6c32.1-3.2,3.2,27.8,3.2,27.8L852.1,894.9z"/>
			<g>
				<path class="st7" d="M929.9,721.1l27.8-7.5l99.6,34.3l104.9-49.2l17.1,16.1c0,0-85.6,210.9-85.6,215.2s-77.1,35.3-86.7,32.1
					s-42.8-15-42.8-15s-15-11.8-18.2-35.3C942.8,888.2,929.9,721.1,929.9,721.1z"/>
				<polygon class="st8" points="918.2,715.8 1050.9,764 994.2,1016.6 858.2,974.9 				"/>
				<polygon class="st9" points="1183.7,709.4 1131.2,956.7 994.2,1016.6 1050.9,764 				"/>
			</g>
			
				<ellipse transform="matrix(0.1509 -0.9885 0.9885 0.1509 185.4321 1214.5385)" class="st4" cx="799.7" cy="499.3" rx="107.4" ry="81.4"/>
			<path class="st4" d="M767.2,671.9L767.2,671.9c-22.8,0-41.2-18.5-41.2-41.2v-113h82.4v113C808.4,653.4,790,671.9,767.2,671.9z"/>
			<path class="st4" d="M646.8,861L636,921l190.3-11.4c0,0,1.3,0,18.5-19.3c17.1-19.3,69.1-38.8,69.1-28.1s-2.4,15.3-7.2,19.3
				c0,0,28.1-1.6,16.1,13.7c0,0,12,3.2-1.6,20.1c0,0,17.7-1.6,10.4,10.4c0,0-24.9,27.3-54.6,27.3l-296.9,44.3
				c-21.9,3.2-41.1-14.6-39.6-36.6l8.6-125.6L646.8,861z"/>
			<path class="st4" d="M1171.4,868.1l4-18.7c1-4.6-1.9-9.1-6.5-10v0c-4.6-1-9.1,1.9-10,6.5l-3.7,17.1l-10.4-1.8l0,0.1l-28.4-4.7
				c-4.6-0.8-9,2.4-9.7,7c-0.8,4.6,2.4,9,7,9.7l27.8,7.9l-23.5-3.9c-4.4-0.7-8.6,2.3-9.3,6.7c-0.7,4.4,2.3,8.6,6.7,9.3l22.9,6.9
				l-19.4-3.2c-4.1-0.7-8,2.1-8.6,6.2c-0.7,4.1,2.1,8,6.2,8.6l18.9,5.3l-13.2-2.2c-3.2-0.5-6.3,1.7-6.8,4.9
				c-0.5,3.2,1.7,6.3,4.9,6.8l15.5,2.5l12.4,2.1c0.7,0.1,1.5,0.2,2.2,0.3l1.1,0.2c0.6,0.1,1.2,0.1,1.8,0
				c16.7,0.3,31.5-11.6,34.4-28.5v0C1190,888.9,1183.2,875.1,1171.4,868.1z"/>
			
				<rect x="872.6" y="887.1" transform="matrix(0.9342 -0.3568 0.3568 0.9342 -258.1532 376.0331)" class="st2" width="35.2" height="1.4"/>
			
				<rect x="881.6" y="903" transform="matrix(0.9168 -0.3993 0.3993 0.9168 -285.7434 435.7914)" class="st2" width="42.9" height="1.4"/>
			
				<rect x="890.9" y="920.8" transform="matrix(0.917 -0.3989 0.3989 0.917 -292.3341 438.1783)" class="st2" width="31.5" height="1.4"/>
			<path class="st2" d="M810.6,463.7c0,0,83.5,8,93.1-12.8c9.6-20.9-16.1-80.3-53-94.7c-36.9-14.5-117.2,1.6-134.9,48.2
				c0,0-46.6,6.4-36.9,53c9.6,46.6,40.1,123.7,48.2,123.7s11.2-88.3,11.2-88.3s8,32.1,17.7,19.3c9.6-12.8-4.8-33.7,9.6-40.1
				C780,465.3,810.6,463.7,810.6,463.7z"/>
			<ellipse class="st4" cx="729.2" cy="513.3" rx="20.2" ry="26.5"/>
			<path class="st2" d="M838,543.4l-0.3-1.4c0.1,0,13.6-3.2,16.3-8.6c2.5-5.1-5-9.8-5.1-9.8l-0.4-0.2l3.3-21.9l1.4,0.2l-3.1,21
				c1.7,1.1,8,5.8,5.2,11.4C852.3,540,838.6,543.3,838,543.4z"/>
			<ellipse class="st2" cx="825.4" cy="514.3" rx="6.4" ry="8.4"/>
			<ellipse class="st10" cx="824.3" cy="528.5" rx="8.2" ry="3.9"/>
			<ellipse class="st10" cx="867.4" cy="526.6" rx="8.2" ry="3.9"/>
			<ellipse class="st2" cx="867.5" cy="511.8" rx="5.7" ry="7.5"/>
			<path class="st11" d="M846.4,558.8c0,0-32.5-4.6-31.8-1.1S825.4,578.7,846.4,558.8z"/>
			<path class="st2" d="M814.3,494.7c0,0,23.3-3.7,24.1-5.9s-2.1-6.2-5.6-6.2c-3.5,0-24.4,6.2-23.8,9.4
				C809.5,495.2,814.3,494.7,814.3,494.7z"/>
			<path class="st2" d="M874.5,493.6c0,0-18.9-3-19.5-4.8c-0.7-1.7,1.7-5,4.6-5s19.7,5,19.3,7.6C878.4,494,874.5,493.6,874.5,493.6z
				"/>
			<path class="st10" d="M718.7,505.6c0,0-1.4,8.9,2.9,9.6s7.1,0.7,7.7,3.7c0.5,3,1.4,5,4.5,3.9c3-1.1,8.4-5.2,8.7-7.7
				s-2.7-27.3-18.2-16.2L718.7,505.6z"/>
			<g>
				<path class="st2" d="M740.5,524.7l-1.3-0.6c0.1-0.1,6.4-14.7-3.3-24.9c-1.9-2-3.9-2.8-6.1-2.5c-7.4,1.2-14.1,15.3-14.2,15.4
					l-1.3-0.6c0.3-0.6,7.1-14.9,15.2-16.2c2.6-0.4,5.1,0.5,7.3,2.9C747.3,509.2,740.6,524.5,740.5,524.7z"/>
				<path class="st2" d="M725.8,507.5l-1.3-0.5c0.1-0.3,2.4-6.7,7-7.9c2.5-0.6,5.1,0.3,7.7,2.7l-0.9,1c-2.3-2.1-4.5-2.9-6.5-2.4
					C728,501.6,725.9,507.5,725.8,507.5z"/>
			</g>
			
				<rect x="1132.2" y="858.8" transform="matrix(0.2807 -0.9598 0.9598 0.2807 -28.6738 1719.6143)" class="st2" width="1.4" height="40.3"/>
			
				<rect x="1130.9" y="879.2" transform="matrix(0.3078 -0.9514 0.9514 0.3078 -71.4581 1698.4354)" class="st2" width="1.4" height="38.3"/>
			
				<rect x="1128.7" y="901.2" transform="matrix(0.2747 -0.9615 0.9615 0.2747 -61.0754 1749.9502)" class="st2" width="1.4" height="28.6"/>
			<path class="st2" d="M1171.3,869.3c-7.8-5.7-37-8.8-37.3-8.8l0.1-1.4c1.2,0.1,29.9,3.1,38,9.1L1171.3,869.3z"/>
		</g>
		<path class="st2" d="M1283,1552.2c0,0,110.7,11.9,127.9,52.1v19.5l-206.9-4c-15.2-0.3-26.8-13.9-24.6-29l5.5-38.6H1283z"/>
		<path class="st11" d="M1113.9,1318.3l-1.8-0.8c0.1-0.3,14-30.4,22.3-70.2c7.7-36.7,12.1-89.5-10.4-132.3
			c-20.5-39-59.9-63.7-116.9-73.3l0.3-2c57.7,9.8,97.5,34.8,118.3,74.4c22.8,43.4,18.3,96.6,10.6,133.7
			C1128,1287.7,1114,1318,1113.9,1318.3z"/>
		<g>
			<polygon class="st1" points="314.8,952.3 243.2,680 243.9,679.1 397.9,472.3 401.9,475.2 248.7,681.1 319.6,951.1 			"/>
			<polygon class="st1" points="360.7,952.3 289.2,680 289.9,679.1 443.8,472.3 447.9,475.2 294.6,681.1 365.5,951.1 			"/>
			<path class="st8" d="M606.2,410.4c0,0-33.3,56.4-66.5,112.2c-33,55.5-65.9,110.4-65.6,108.4c0.6-4-47.4-117.9-47.4-117.9
				l-82.7-56.5l18.1-31.2l23.1-39.9l80.7,45.6L606.2,410.4z"/>
			<circle class="st1" cx="268.9" cy="679" r="39.8"/>
			<path class="st1" d="M451.2,994.6H252.1v0c0-29.6,24-53.6,53.6-53.6h91.9C427.2,941,451.2,965,451.2,994.6L451.2,994.6z"/>
			<path class="st3" d="M606.2,410.4c0,0-33.3,56.4-66.5,112.2L362.4,427c0,0-0.1-0.6-0.3-1.6l23.1-39.9l80.7,45.6L606.2,410.4z"/>
		</g>
		<g>
			<path class="st3" d="M1628.8,994.8h-198.6v-56.3h198.6c15.6,0,28.2,12.6,28.2,28.2v0C1656.9,982.2,1644.3,994.8,1628.8,994.8z"/>
			<path class="st7" d="M1590,988.7h-159.8v-44.1H1590c12.2,0,22.1,9.9,22.1,22.1v0C1612,978.9,1602.1,988.7,1590,988.7z"/>
			<rect x="1430.3" y="955.6" class="st12" width="163.4" height="2"/>
			<rect x="1442.2" y="962.7" class="st12" width="163.4" height="2"/>
			<rect x="1430.7" y="970.8" class="st12" width="163.4" height="2"/>
			<rect x="1436.7" y="978.6" class="st12" width="163.4" height="2"/>
		</g>
		<g>
			<path class="st1" d="M1603.6,938.6H1405v-56.3h198.6c15.6,0,28.2,12.6,28.2,28.2v0C1631.7,926,1619.1,938.6,1603.6,938.6z"/>
			<path class="st7" d="M1564.8,932.5H1405v-44.1h159.8c12.2,0,22.1,9.9,22.1,22.1v0C1586.8,922.6,1576.9,932.5,1564.8,932.5z"/>
			<rect x="1405.1" y="899.4" class="st12" width="163.4" height="2"/>
			<rect x="1417" y="906.5" class="st12" width="163.4" height="2"/>
			<rect x="1405.5" y="914.6" class="st12" width="163.4" height="2"/>
			<rect x="1411.6" y="922.4" class="st12" width="163.4" height="2"/>
		</g>
		<g>
			<path class="st13" d="M1630.2,882.3h-198.6V826h198.6c15.6,0,28.2,12.6,28.2,28.2v0C1658.4,869.7,1645.8,882.3,1630.2,882.3z"/>
			<path class="st7" d="M1591.4,876.2h-159.8v-44.1h159.8c12.2,0,22.1,9.9,22.1,22.1v0C1613.5,866.3,1603.6,876.2,1591.4,876.2z"/>
			<rect x="1431.8" y="843.1" class="st12" width="163.4" height="2"/>
			<rect x="1443.6" y="850.2" class="st12" width="163.4" height="2"/>
			<rect x="1432.1" y="858.3" class="st12" width="163.4" height="2"/>
			<rect x="1438.2" y="866.1" class="st12" width="163.4" height="2"/>
		</g>
		<g>
			<path class="st13" d="M1368.1,885.1c-1.8-8.5-6.6-12.1-10.3-13.6c-7.6-3.2-17.1-0.3-23.7,2.6v-18.8h-110.7v111.9
				c0,15.6,12.6,28.2,28.2,28.2h54.2c15.6,0,28.2-12.6,28.2-28.2v-7.4c9.5-1.8,17.4-6.4,23.4-13.6
				C1372.3,928.5,1371.1,899.5,1368.1,885.1z M1349.1,939.2c-3.8,4.6-8.8,7.7-14.9,9.3v-62.1c5.2-2.9,14.5-6.8,19.4-4.7
				c1.2,0.5,2.9,1.6,3.7,5.8C1359.8,898.9,1361.2,924.7,1349.1,939.2z"/>
			<path class="st14" d="M1250.6,839.5c0,0-12.1-6.9-4.8-24.9s16.6-19.4,6.9-29.8c-9.7-10.4-17-17-9.7-23.9
				c7.3-6.9,14.2-14.2,14.2-14.2s-12.8,17.3-5.2,24.2c7.6,6.9,20.1,15.6,12.8,26.6S1245.7,816.7,1250.6,839.5z"/>
			<path class="st14" d="M1268.2,776c0,0-12.1-6.9-4.8-24.9s16.6-19.4,6.9-29.8c-9.7-10.4-17-17-9.7-23.9
				c7.3-6.9,14.2-14.2,14.2-14.2s-12.8,17.3-5.2,24.2c7.6,6.9,20.1,15.6,12.8,26.6C1275.1,745.2,1263.3,753.1,1268.2,776z"/>
			<path class="st14" d="M1288.1,836.5c0,0-12.1-6.9-4.8-24.9c7.3-18,16.6-19.4,6.9-29.8c-9.7-10.4-17-17-9.7-23.9
				c7.3-6.9,14.2-14.2,14.2-14.2s-12.8,17.3-5.2,24.2c7.6,6.9,20.1,15.6,12.8,26.6S1283.3,813.6,1288.1,836.5z"/>
		</g>
		<rect x="1709.6" y="882.2" class="st2" width="85.2" height="112.8"/>
		<g>
			<path class="st2" d="M473.1,796.6c-1-1.5-3.4-0.4-4.6,0.2l0.7-4.3c0.8-5-2.6-9.7-7.6-10.5c-5-0.8-9.7,2.6-10.5,7.6l-14,89.5
				c-0.8,5,2.6,9.7,7.6,10.5c5,0.8,9.7-2.6,10.5-7.6l11.3-72.3l0.8,0c0,0-0.6,19.7-0.6,27s4,5.5,4,5.5S474.4,798.6,473.1,796.6z"/>
			<path class="st8" d="M492.2,815.6c-0.7-1-2.3-0.3-3.1,0.1l0.5-2.9c0.5-3.3-1.8-6.4-5.1-7c-3.3-0.5-6.4,1.8-7,5.1l-9.3,59.5
				c-0.5,3.3,1.8,6.4,5.1,7s6.4-1.8,7-5.1l7.5-48.1l0.5,0c0,0-0.4,13.1-0.4,18c0,4.9,2.6,3.7,2.6,3.7S493.1,817,492.2,815.6z"/>
			<g>
				<rect x="419.2" y="793.4" class="st2" width="18.3" height="97"/>
				<path class="st9" d="M440.9,831.8h-24.7v-46.2c0-3.5,2.8-6.3,6.3-6.3h12.2c3.5,0,6.3,2.8,6.3,6.3V831.8z"/>
			</g>
			<g>
				<polygon class="st13" points="511.2,851.3 493.9,995.8 474.1,996.2 434.3,997.1 406.4,851.3 				"/>
				<path class="st15" d="M511.2,851.3l-17.2,144.5l-19.8,0.5c-1.7-0.3-2.7-0.5-2.7-0.5l-1.3-144.5H511.2z"/>
			</g>
		</g>
	</g>
</g>
</svg>
