<svg id="visual" viewBox="0 0 1920 1080" width="1920" height="1080" xmlns="http://www.w3.org/2000/svg" xmlns:xlink="http://www.w3.org/1999/xlink" version="1.1"><rect x="0" y="0" width="1920" height="1080" fill="#120e2b"></rect><defs><linearGradient id="grad1_0" x1="43.8%" y1="0%" x2="100%" y2="100%"><stop offset="14.444444444444446%" stop-color="#fa7268" stop-opacity="1"></stop><stop offset="85.55555555555554%" stop-color="#fa7268" stop-opacity="1"></stop></linearGradient></defs><defs><linearGradient id="grad1_1" x1="43.8%" y1="0%" x2="100%" y2="100%"><stop offset="14.444444444444446%" stop-color="#fa7268" stop-opacity="1"></stop><stop offset="85.55555555555554%" stop-color="#af456b" stop-opacity="1"></stop></linearGradient></defs><defs><linearGradient id="grad1_2" x1="43.8%" y1="0%" x2="100%" y2="100%"><stop offset="14.444444444444446%" stop-color="#5b2956" stop-opacity="1"></stop><stop offset="85.55555555555554%" stop-color="#af456b" stop-opacity="1"></stop></linearGradient></defs><defs><linearGradient id="grad1_3" x1="43.8%" y1="0%" x2="100%" y2="100%"><stop offset="14.444444444444446%" stop-color="#5b2956" stop-opacity="1"></stop><stop offset="85.55555555555554%" stop-color="#120e2b" stop-opacity="1"></stop></linearGradient></defs><defs><linearGradient id="grad2_0" x1="0%" y1="0%" x2="56.3%" y2="100%"><stop offset="14.444444444444446%" stop-color="#fa7268" stop-opacity="1"></stop><stop offset="85.55555555555554%" stop-color="#fa7268" stop-opacity="1"></stop></linearGradient></defs><defs><linearGradient id="grad2_1" x1="0%" y1="0%" x2="56.3%" y2="100%"><stop offset="14.444444444444446%" stop-color="#af456b" stop-opacity="1"></stop><stop offset="85.55555555555554%" stop-color="#fa7268" stop-opacity="1"></stop></linearGradient></defs><defs><linearGradient id="grad2_2" x1="0%" y1="0%" x2="56.3%" y2="100%"><stop offset="14.444444444444446%" stop-color="#af456b" stop-opacity="1"></stop><stop offset="85.55555555555554%" stop-color="#5b2956" stop-opacity="1"></stop></linearGradient></defs><defs><linearGradient id="grad2_3" x1="0%" y1="0%" x2="56.3%" y2="100%"><stop offset="14.444444444444446%" stop-color="#120e2b" stop-opacity="1"></stop><stop offset="85.55555555555554%" stop-color="#5b2956" stop-opacity="1"></stop></linearGradient></defs><g transform="translate(1920, 0)"><path d="M0 648C-35.8 583.2 -71.5 518.4 -115.3 505C-159 491.7 -210.7 529.8 -255.6 530.7C-300.4 531.6 -338.5 495.3 -365.4 458.2C-392.2 421 -407.9 383.1 -447.2 356.6C-486.5 330.2 -549.5 315.3 -583.8 281.2C-618.2 247.1 -623.9 193.8 -629.8 143.7C-635.7 93.7 -641.9 46.8 -648 0L0 0Z" fill="#331d43"></path><path d="M0 486C-26.8 437.4 -53.7 388.8 -86.4 378.8C-119.2 368.7 -158 397.3 -191.7 398C-225.3 398.7 -253.9 371.5 -274 343.6C-294.2 315.8 -305.9 287.3 -335.4 267.5C-364.9 247.6 -412.1 236.4 -437.9 210.9C-463.6 185.3 -467.9 145.4 -472.4 107.8C-476.8 70.3 -481.4 35.1 -486 0L0 0Z" fill="#853664"></path><path d="M0 324C-17.9 291.6 -35.8 259.2 -57.6 252.5C-79.5 245.8 -105.3 264.9 -127.8 265.3C-150.2 265.8 -169.3 247.6 -182.7 229.1C-196.1 210.5 -203.9 191.5 -223.6 178.3C-243.3 165.1 -274.7 157.6 -291.9 140.6C-309.1 123.5 -311.9 96.9 -314.9 71.9C-317.9 46.8 -320.9 23.4 -324 0L0 0Z" fill="#d7586c"></path><path d="M0 162C-8.9 145.8 -17.9 129.6 -28.8 126.3C-39.7 122.9 -52.7 132.4 -63.9 132.7C-75.1 132.9 -84.6 123.8 -91.3 114.5C-98.1 105.3 -102 95.8 -111.8 89.2C-121.6 82.5 -137.4 78.8 -146 70.3C-154.5 61.8 -156 48.5 -157.5 35.9C-158.9 23.4 -160.5 11.7 -162 0L0 0Z" fill="#fa7268"></path></g><g transform="translate(0, 1080)"><path d="M0 -648C44.3 -615.5 88.6 -582.9 127.3 -557.7C165.9 -532.4 198.9 -514.3 242.1 -502.7C285.3 -491.2 338.8 -486 361 -452.7C383.2 -419.3 374.3 -357.7 413.6 -329.8C452.9 -301.9 540.4 -307.6 583.8 -281.2C627.2 -254.7 626.5 -196 629.8 -143.7C633.1 -91.5 640.6 -45.8 648 0L0 0Z" fill="#331d43"></path><path d="M0 -486C33.2 -461.6 66.5 -437.2 95.5 -418.2C124.4 -399.3 149.2 -385.7 181.6 -377.1C214 -368.4 254.1 -364.5 270.8 -339.5C287.4 -314.5 280.7 -268.3 310.2 -247.4C339.7 -226.4 405.3 -230.7 437.9 -210.9C470.4 -191 469.9 -147 472.4 -107.8C474.9 -68.6 480.4 -34.3 486 0L0 0Z" fill="#853664"></path><path d="M0 -324C22.2 -307.7 44.3 -291.5 63.6 -278.8C83 -266.2 99.4 -257.2 121.1 -251.4C142.7 -245.6 169.4 -243 180.5 -226.3C191.6 -209.7 187.1 -178.9 206.8 -164.9C226.4 -151 270.2 -153.8 291.9 -140.6C313.6 -127.3 313.2 -98 314.9 -71.9C316.6 -45.8 320.3 -22.9 324 0L0 0Z" fill="#d7586c"></path><path d="M0 -162C11.1 -153.9 22.2 -145.7 31.8 -139.4C41.5 -133.1 49.7 -128.6 60.5 -125.7C71.3 -122.8 84.7 -121.5 90.3 -113.2C95.8 -104.8 93.6 -89.4 103.4 -82.5C113.2 -75.5 135.1 -76.9 146 -70.3C156.8 -63.7 156.6 -49 157.5 -35.9C158.3 -22.9 160.1 -11.4 162 0L0 0Z" fill="#fa7268"></path></g></svg>