<svg id="Capa_1" enable-background="new 0 0 512 512" height="512" viewBox="0 0 512 512" width="512" xmlns="http://www.w3.org/2000/svg"><g><path d="m489.629 256.287-6.805-6.566c1.17-1.517 17.734-12.705 18.739-36.561.547-12.974-3.992-25.384-12.778-34.942-9.179-9.987-22.224-15.715-35.79-15.715-7.286 0-14.382 1.619-20.832 4.682-5.807-3.104-12.22-5.005-18.856-5.546-7.144-.582-12.785-6.43-13.071-13.592-2.28-57.097-64.085-105.34-144.242-105.34-80.591 0-141.715 48.325-144.222 104.997-.34 7.694-6.672 13.755-14.374 13.732-7.549-.022-19.278.249-41.29.044-26.803 0-48.609 21.806-48.609 48.609 0 17.127 8.905 32.214 22.326 40.875v40.306c0 29.148 25.639 51.914 54.756 48.223-.012 9.132 2.54 18.364 7.895 26.566l17.987 27.546-.066 26.938c-.066 26.803 21.686 48.663 48.59 48.73h.02c13.698 0 26.103-5.711 34.952-14.875 14.127 9.396 31.071 14.875 49.272 14.875 19.092 0 36.801-6.028 51.326-16.283 14.382 11.034 30.577 16.288 47.524 16.289h.003c39.093 0 77.148-29.813 77.148-73.993-.001-58.249.003-55.924-.004-56.419 4.738-.984 9.224-2.66 13.35-4.917 19.34 10.587 43.272 6.627 58.282-8.928 18.653-19.333 18.108-50.081-1.231-68.735z" fill="#f6ee86"/><path d="m126.685 103.132c-8.958 13.632-14.214 28.777-14.913 44.572-.34 7.694-6.672 13.755-14.373 13.732-7.549-.022-19.279.249-41.29.044-26.803 0-48.609 21.806-48.609 48.609 0 17.127 8.905 32.214 22.326 40.875v40.306c0 29.148 25.639 51.914 54.756 48.223-.012 9.132 2.54 18.364 7.895 26.566l17.987 27.546-.066 26.938c-.066 26.803 21.686 48.663 48.59 48.73h.02c13.698 0 26.103-5.711 34.952-14.875 14.127 9.396 31.071 14.875 49.272 14.875 8.458 0 16.642-1.188 24.4-3.397-118.987-41.8-156.991-260.183-140.947-362.744z" fill="#efd176"/><path d="m435.188 384.276-11.401 2.962c-6.994 1.817-13.365-4.553-11.547-11.547l2.962-11.401c1.234-4.75 1.234-9.737 0-14.488l-2.962-11.401c-1.817-6.994 4.553-13.364 11.547-11.547l11.401 2.963c4.75 1.234 9.737 1.234 14.488 0l11.401-2.963c6.994-1.817 13.365 4.553 11.547 11.547l-2.962 11.401c-1.234 4.75-1.234 9.737 0 14.488l2.962 11.401c1.817 6.994-4.553 13.365-11.547 11.547l-11.401-2.962c-4.751-1.234-9.738-1.234-14.488 0z" fill="#8de1ce"/><path d="m76.8 384.276 11.401 2.962c6.994 1.817 13.365-4.553 11.547-11.547l-2.963-11.401c-1.234-4.75-1.234-9.737 0-14.488l2.963-11.401c1.817-6.994-4.553-13.364-11.547-11.547l-11.401 2.963c-4.75 1.234-9.737 1.234-14.488 0l-11.401-2.963c-6.994-1.817-13.365 4.553-11.547 11.547l2.963 11.401c1.234 4.75 1.234 9.737 0 14.488l-2.963 11.401c-1.817 6.994 4.553 13.365 11.547 11.547l11.401-2.962c4.751-1.234 9.738-1.234 14.488 0z" fill="#b39bdb"/><g><g fill="#eda1ab"><ellipse cx="172.429" cy="149.867" rx="30.834" ry="24.555"/><ellipse cx="339.56" cy="149.867" rx="30.834" ry="24.555"/></g></g><path d="m195.367 380.072c0 26.396 21.474 47.871 47.871 47.871 26.396 0 47.871-21.475 47.871-47.871s-21.475-47.871-47.871-47.871c-26.397 0-47.871 21.475-47.871 47.871zm47.87-33.31c18.367 0 33.311 14.943 33.311 33.31s-14.944 33.311-33.311 33.311-33.31-14.943-33.31-33.311c0-18.367 14.943-33.31 33.31-33.31zm-52.838-240.335c-4.142 0-7.5 3.358-7.5 7.5v12c0 4.142 3.358 7.5 7.5 7.5s7.5-3.358 7.5-7.5v-12c0-4.142-3.358-7.5-7.5-7.5zm65.595 34.806c8.796 0 17.16-3.81 22.948-10.451 2.722-3.123 2.395-7.86-.727-10.582-3.125-2.721-7.861-2.396-10.582.727-2.939 3.373-7.182 5.307-11.64 5.307-4.459 0-8.701-1.934-11.639-5.306-2.722-3.122-7.459-3.448-10.582-.727s-3.448 7.458-.727 10.582c5.789 6.641 14.153 10.45 22.949 10.45zm124.155 309.646c-24.173 14.942-56.021 15.342-81.026-3.841-2.607-2-6.209-2.07-8.892-.176-27.693 19.554-64.311 19.784-92.119 1.289-3.015-2.005-7.033-1.569-9.549 1.036-7.836 8.116-18.333 12.585-29.557 12.585-22.777-.057-41.165-18.529-41.109-41.212l.066-26.938c.003-1.463-.42-2.895-1.22-4.119l-9.472-14.506c-.221-1.182-.259-1.112-3.226-12.594-.911-3.505-.911-7.21 0-10.715l2.962-11.401c3.256-12.526-8.15-23.954-20.692-20.692l-11.401 2.962c-3.505.91-7.209.91-10.715 0-10.327-2.523-12.194-3.576-16.01-3.515-7.023-7.597-10.864-17.33-10.864-27.773v-40.306c0-2.547-1.293-4.92-3.434-6.302-11.829-7.633-18.891-20.558-18.891-34.572 0-22.668 18.441-41.109 41.04-41.11 25.133.235 36.388-.117 41.403-.043 11.723 0 21.303-9.169 21.822-20.901.789-17.835 8.056-35.314 21.015-50.55 2.684-3.155 2.302-7.888-.854-10.572-3.155-2.684-7.889-2.303-10.572.854-15.139 17.798-23.637 38.409-24.575 59.605-.163 3.685-3.165 6.564-6.837 6.564h-.021c-7.613-.023-19.288.248-41.313.044-30.938-.001-56.108 25.17-56.108 56.109 0 17.733 8.272 34.181 22.326 44.779v36.402c0 12.751 4.421 25.11 12.32 34.995-2.863 4.04-3.819 9.098-2.54 14.023l2.963 11.401c.911 3.505.911 7.211 0 10.715l-2.963 11.401c-3.254 12.527 8.147 23.951 20.693 20.692l11.401-2.962c3.505-.91 7.21-.91 10.715 0 10.539 2.595 12.154 3.522 15.739 3.522 3.493 0 6.874-1.099 9.744-3.152l2.562 3.923-.061 24.695c-.077 30.952 24.97 56.172 56.11 56.249 13.274 0 25.798-4.572 35.858-12.984 30.653 17.777 69.062 17.398 99.516-1.677 29.444 19.996 65.953 18.65 93.654 1.526 3.523-2.178 4.614-6.8 2.437-10.323-2.18-3.524-6.802-4.614-10.325-2.435zm-290.621-84.703 2.962 11.401c.38 1.463-.933 2.781-2.402 2.402l-11.401-2.962c-5.972-1.552-12.286-1.553-18.26 0l-11.401 2.962c-1.467.38-2.782-.94-2.402-2.402l2.963-11.401c1.552-5.973 1.552-12.287 0-18.26l-2.962-11.401c-.381-1.465.936-2.783 2.402-2.402l11.401 2.962c5.973 1.553 12.287 1.553 18.26 0l11.401-2.962c1.467-.381 2.783.939 2.402 2.402l-2.962 11.401c-1.553 5.973-1.553 12.287-.001 18.26zm129.814-68.103c3.758 1.432 7.963-.455 9.395-4.212l5.806-15.244h38.928l5.745 15.224c1.425 3.779 5.637 5.655 9.382 4.241 3.761-1.42 5.66-5.621 4.24-9.382l-30.206-80.041c-.026-.067-.052-.134-.079-.2-1.414-3.433-4.723-5.65-8.435-5.65h-.01c-3.716.004-7.025 2.23-8.432 5.669-.022.054-.044.109-.064.164l-30.483 80.037c-1.43 3.757.456 7.964 4.213 9.394zm34.755-70.796 13.88 36.779h-27.888zm62.354-23.987c-3.041.948-5.113 3.764-5.113 6.95v81.029c0 4.021 3.259 7.28 7.28 7.28s7.28-3.259 7.28-7.28v-57.675l41.517 60.121c2.253 3.254 5.967 4.656 9.46 3.561 3.59-1.121 5.909-4.553 5.909-8.813l-.758-78.445c-.039-3.997-3.29-7.21-7.278-7.21-.024 0-.048 0-.072 0-4.021.039-7.249 3.33-7.21 7.35l.57 58.829-43.427-62.885c-1.81-2.621-5.113-3.758-8.158-2.812zm7.455-99.103c-11.804 0-21.406 9.603-21.406 21.406 0 4.142 3.357 7.5 7.5 7.5s7.5-3.358 7.5-7.5c0-3.532 2.874-6.406 6.406-6.406s6.406 2.874 6.406 6.406c0 4.142 3.357 7.5 7.5 7.5s7.5-3.358 7.5-7.5c.001-11.803-9.602-21.406-21.406-21.406zm155.487 237.983c20.101-9.289 33-29.379 32.598-51.905-.269-14.98-6.36-28.964-17.153-39.376l-1.197-1.155c21.271-22.61 19.823-55.752.667-76.592-15.671-17.049-40.411-22.762-61.948-14.218-5.829-2.639-12.017-4.237-18.442-4.76-3.392-.277-6.052-3.035-6.186-6.417-1.209-30.282-17.521-58.62-45.929-79.795-28.329-21.116-65.906-32.746-105.808-32.746-36.493 0-71.603 9.879-98.864 27.819-3.46 2.277-4.419 6.928-2.142 10.388s6.929 4.419 10.388 2.142c24.841-16.347 57.023-25.349 90.618-25.349 36.693 0 71.086 10.573 96.843 29.772 24.708 18.418 38.88 42.697 39.905 68.368.438 10.948 9.017 19.877 19.957 20.768 5.607.457 10.967 2.033 15.929 4.685 2.097 1.122 4.602 1.181 6.752.161 16.486-7.827 35.89-3.716 47.885 9.333 7.431 8.084 11.268 18.578 10.806 29.55-.867 20.575-15.096 29.591-17.187 32.299-2.331 3.026-2.016 7.322.733 9.975l6.806 6.566c7.91 7.63 12.374 17.876 12.57 28.849.262 14.661-7.176 28.135-19.638 35.748-4.115-5.822-11.206-8.495-18.164-6.686l-11.401 2.962c-3.505.91-7.209.91-10.716 0l-11.401-2.962c-12.525-3.257-23.952 8.149-20.692 20.692l2.963 11.401c.91 3.505.91 7.211 0 10.715l-2.963 11.401c-1.805 6.948.849 14.072 6.753 18.205-.239 2.073 1.683 18.482-9.027 36.282-2.135 3.549-.989 8.158 2.561 10.293 3.542 2.131 8.154.996 10.293-2.559 12.437-20.673 11.05-40.837 11.174-41.804 7.992-1.638 13.102-4.752 21.057-2.687l11.401 2.962c12.523 3.258 23.951-8.147 20.691-20.692l-2.963-11.401c-.91-3.505-.91-7.21 0-10.715zm-16.991 24.006 2.963 11.401c.381 1.465-.937 2.782-2.402 2.402l-11.401-2.962c-5.972-1.552-12.286-1.553-18.26 0h.001l-11.401 2.962c-1.473.38-2.783-.943-2.403-2.402l2.963-11.401c1.552-5.973 1.552-12.287 0-18.26l-2.963-11.401c-.358-1.379.769-2.474 1.865-2.474.481 0 .005-.042 11.938 3.034 5.974 1.553 12.286 1.552 18.26 0l11.401-2.962c1.48-.381 2.78.948 2.402 2.402l-2.963 11.401c-1.551 5.973-1.551 12.287 0 18.26zm-53.069-163.368c-4.021 0-7.28 3.26-7.28 7.28v81.181c0 4.021 3.259 7.28 7.28 7.28s7.28-3.259 7.28-7.28v-27.772l34.217 33.011c2.884 2.783 7.494 2.718 10.294-.184 2.792-2.894 2.709-7.503-.185-10.294l-38.39-37.038 35.379-32.52c2.96-2.721 3.155-7.326.433-10.287-2.72-2.96-7.327-3.154-10.286-.433l-31.463 28.92v-24.585c.002-4.019-3.258-7.279-7.279-7.279zm-330.892 95.742c4.021 0 7.28-3.259 7.28-7.28v-73.901h15.227c4.021 0 7.28-3.26 7.28-7.28 0-4.021-3.259-7.28-7.28-7.28h-44.833c-4.021 0-7.28 3.26-7.28 7.28 0 4.021 3.26 7.28 7.28 7.28h15.045v73.901c0 4.021 3.26 7.28 7.281 7.28zm80.554 129.393h.018c4.012 0 7.27-3.248 7.28-7.262l.096-39.317 24.545-37.704c2.194-3.37 1.24-7.88-2.13-10.073s-7.879-1.241-10.074 2.129l-19.626 30.149-19.826-30.363c-2.198-3.367-6.71-4.313-10.076-2.115-3.367 2.198-4.314 6.71-2.115 10.076l24.741 37.89-.096 39.292c-.009 4.02 3.242 7.288 7.263 7.298zm155.225-95.742c-4.021 0-7.28 3.259-7.28 7.28v55.861c0 11.365 5.265 20.254 16.096 27.175 10.806 6.903 24.838 6.983 35.568 1.578 15.957-8.035 19.306-20.103 19.306-28.812v-55.803c0-4.021-3.259-7.28-7.28-7.28s-7.28 3.259-7.28 7.28v55.803c0 4.344-1.171 10.71-11.295 15.807-6.294 3.171-14.852 3.198-21.179-.844-6.659-4.255-9.375-8.573-9.375-14.905v-55.861c-.001-4.019-3.26-7.279-7.281-7.279zm-131.787-90.194h-41.618v-31.918c0-4.021-3.26-7.28-7.28-7.28-4.021 0-7.28 3.26-7.28 7.28v81.181c0 4.021 3.26 7.28 7.28 7.28 4.021 0 7.28-3.259 7.28-7.28v-34.703h41.618v34.703c0 4.021 3.26 7.28 7.28 7.28 4.021 0 7.28-3.259 7.28-7.28v-81.181c0-4.021-3.26-7.28-7.28-7.28-4.021 0-7.28 3.26-7.28 7.28z"/></g></svg>