<svg id="visual" viewBox="0 0 960 540" width="960" height="540" xmlns="http://www.w3.org/2000/svg" xmlns:xlink="http://www.w3.org/1999/xlink" version="1.1"><path d="M0 281L14.5 291C29 301 58 321 87.2 325.5C116.3 330 145.7 319 174.8 312.7C204 306.3 233 304.7 262 303.5C291 302.3 320 301.7 349 294.8C378 288 407 275 436.2 277.8C465.3 280.7 494.7 299.3 523.8 301.3C553 303.3 582 288.7 611 290.7C640 292.7 669 311.3 698 317.7C727 324 756 318 785.2 306.2C814.3 294.3 843.7 276.7 872.8 278.3C902 280 931 301 945.5 311.5L960 322L960 541L945.5 541C931 541 902 541 872.8 541C843.7 541 814.3 541 785.2 541C756 541 727 541 698 541C669 541 640 541 611 541C582 541 553 541 523.8 541C494.7 541 465.3 541 436.2 541C407 541 378 541 349 541C320 541 291 541 262 541C233 541 204 541 174.8 541C145.7 541 116.3 541 87.2 541C58 541 29 541 14.5 541L0 541Z" fill="#fa7268"></path><path d="M0 347L14.5 351C29 355 58 363 87.2 363C116.3 363 145.7 355 174.8 347.7C204 340.3 233 333.7 262 332.2C291 330.7 320 334.3 349 336.7C378 339 407 340 436.2 347.2C465.3 354.3 494.7 367.7 523.8 365.2C553 362.7 582 344.3 611 334C640 323.7 669 321.3 698 325.2C727 329 756 339 785.2 348.5C814.3 358 843.7 367 872.8 360.8C902 354.7 931 333.3 945.5 322.7L960 312L960 541L945.5 541C931 541 902 541 872.8 541C843.7 541 814.3 541 785.2 541C756 541 727 541 698 541C669 541 640 541 611 541C582 541 553 541 523.8 541C494.7 541 465.3 541 436.2 541C407 541 378 541 349 541C320 541 291 541 262 541C233 541 204 541 174.8 541C145.7 541 116.3 541 87.2 541C58 541 29 541 14.5 541L0 541Z" fill="#ef5f67"></path><path d="M0 362L14.5 364.8C29 367.7 58 373.3 87.2 373.3C116.3 373.3 145.7 367.7 174.8 373.7C204 379.7 233 397.3 262 398.7C291 400 320 385 349 384.8C378 384.7 407 399.3 436.2 399.5C465.3 399.7 494.7 385.3 523.8 385.3C553 385.3 582 399.7 611 403.3C640 407 669 400 698 393.3C727 386.7 756 380.3 785.2 378.2C814.3 376 843.7 378 872.8 381.3C902 384.7 931 389.3 945.5 391.7L960 394L960 541L945.5 541C931 541 902 541 872.8 541C843.7 541 814.3 541 785.2 541C756 541 727 541 698 541C669 541 640 541 611 541C582 541 553 541 523.8 541C494.7 541 465.3 541 436.2 541C407 541 378 541 349 541C320 541 291 541 262 541C233 541 204 541 174.8 541C145.7 541 116.3 541 87.2 541C58 541 29 541 14.5 541L0 541Z" fill="#e34c67"></path><path d="M0 432L14.5 432.8C29 433.7 58 435.3 87.2 432.5C116.3 429.7 145.7 422.3 174.8 425.8C204 429.3 233 443.7 262 450.7C291 457.7 320 457.3 349 455.2C378 453 407 449 436.2 447.8C465.3 446.7 494.7 448.3 523.8 452.2C553 456 582 462 611 463.5C640 465 669 462 698 461.3C727 460.7 756 462.3 785.2 458.2C814.3 454 843.7 444 872.8 436.3C902 428.7 931 423.3 945.5 420.7L960 418L960 541L945.5 541C931 541 902 541 872.8 541C843.7 541 814.3 541 785.2 541C756 541 727 541 698 541C669 541 640 541 611 541C582 541 553 541 523.8 541C494.7 541 465.3 541 436.2 541C407 541 378 541 349 541C320 541 291 541 262 541C233 541 204 541 174.8 541C145.7 541 116.3 541 87.2 541C58 541 29 541 14.5 541L0 541Z" fill="#d53867"></path><path d="M0 464L14.5 470C29 476 58 488 87.2 489.3C116.3 490.7 145.7 481.3 174.8 478.2C204 475 233 478 262 482C291 486 320 491 349 494C378 497 407 498 436.2 497.3C465.3 496.7 494.7 494.3 523.8 489C553 483.7 582 475.3 611 472.2C640 469 669 471 698 475.2C727 479.3 756 485.7 785.2 487.7C814.3 489.7 843.7 487.3 872.8 488.8C902 490.3 931 495.7 945.5 498.3L960 501L960 541L945.5 541C931 541 902 541 872.8 541C843.7 541 814.3 541 785.2 541C756 541 727 541 698 541C669 541 640 541 611 541C582 541 553 541 523.8 541C494.7 541 465.3 541 436.2 541C407 541 378 541 349 541C320 541 291 541 262 541C233 541 204 541 174.8 541C145.7 541 116.3 541 87.2 541C58 541 29 541 14.5 541L0 541Z" fill="#c62368"></path></svg>